<svg id="svg" version="1.1" xmlns="http://www.w3.org/2000/svg" xmlns:xlink="http://www.w3.org/1999/xlink" width="400" height="400" viewBox="0, 0, 400,400"><g id="svgg"><path id="path0" d="M192.985 12.094 C 192.877 12.375,192.839 18.545,192.900 25.803 L 193.011 39.000 193.106 25.500 L 193.200 12.000 200.000 12.000 L 206.800 12.000 206.800 25.189 L 206.800 38.379 201.000 38.506 L 195.199 38.633 201.100 38.617 L 207.000 38.600 207.000 25.200 L 207.000 11.800 200.091 11.691 C 194.762 11.606,193.137 11.698,192.985 12.094 M154.268 50.665 C 154.121 50.813,154.000 54.053,154.000 57.867 L 154.000 64.800 200.009 64.800 L 246.018 64.800 245.909 57.700 L 245.800 50.600 200.168 50.498 C 175.071 50.442,154.416 50.517,154.268 50.665 M245.400 57.600 L 245.400 64.200 200.000 64.200 L 154.600 64.200 154.489 58.017 C 154.428 54.616,154.468 51.600,154.577 51.315 C 154.739 50.894,163.272 50.816,200.088 50.898 L 245.400 51.000 245.400 57.600 M117.751 76.990 C 110.986 78.645,105.670 83.612,103.362 90.432 C 102.434 93.177,102.400 93.681,102.400 104.838 L 102.400 116.400 119.780 116.400 C 133.978 116.400,137.586 116.510,139.480 117.003 C 158.479 121.943,158.956 147.695,140.155 153.398 C 138.554 153.884,134.962 153.992,120.300 153.996 L 102.400 154.000 102.400 167.600 L 102.400 181.200 126.100 181.201 C 149.043 181.203,149.842 181.228,151.104 181.998 C 154.808 184.256,154.932 189.522,151.337 191.878 C 150.316 192.548,148.504 192.615,126.418 192.800 L 102.600 193.000 102.464 194.400 C 102.316 195.920,102.996 200.609,103.826 203.800 C 104.475 206.293,105.619 210.160,109.682 223.598 C 114.535 239.653,114.530 239.631,114.003 241.591 C 113.616 243.026,111.299 245.600,110.394 245.600 C 109.677 245.600,109.563 247.413,110.186 248.905 C 110.530 249.727,110.682 250.400,110.525 250.400 C 110.368 250.400,110.456 250.616,110.720 250.880 C 110.984 251.144,111.200 251.853,111.200 252.456 C 111.200 253.059,111.380 253.664,111.600 253.800 C 111.820 253.936,112.000 254.361,112.000 254.744 C 112.000 256.606,112.939 257.594,114.713 257.597 C 117.549 257.602,121.200 259.978,121.200 261.819 C 121.200 262.253,123.515 269.892,124.012 271.100 L 124.383 272.000 150.300 272.000 L 176.218 272.000 177.699 273.221 C 181.009 275.950,180.568 280.447,176.761 282.767 C 175.424 283.582,174.979 283.597,151.700 283.599 C 125.365 283.600,127.301 283.394,128.363 286.081 C 128.563 286.587,129.115 288.350,129.590 290.000 C 130.066 291.650,130.604 293.450,130.786 294.000 C 130.968 294.550,131.508 296.350,131.986 298.000 C 132.464 299.650,133.004 301.450,133.186 302.000 C 133.368 302.550,133.908 304.350,134.386 306.000 C 134.864 307.650,135.404 309.450,135.586 310.000 C 135.768 310.550,136.310 312.350,136.791 314.000 C 138.658 320.403,139.805 322.160,142.760 323.146 C 144.666 323.782,254.699 323.789,257.000 323.154 C 259.510 322.460,261.235 320.338,262.337 316.588 C 262.852 314.835,263.425 312.950,263.610 312.400 C 263.794 311.850,264.340 310.050,264.822 308.400 C 265.303 306.750,266.012 304.410,266.395 303.200 C 266.779 301.990,267.318 300.190,267.593 299.200 C 267.868 298.210,268.240 296.950,268.421 296.400 C 268.601 295.850,269.312 293.510,270.001 291.200 C 270.690 288.890,271.421 286.478,271.627 285.840 C 271.832 285.202,272.000 284.437,272.000 284.140 C 272.000 283.693,267.891 283.600,248.020 283.600 C 227.940 283.600,223.662 283.502,221.720 282.997 C 202.626 278.032,202.230 252.313,221.159 246.567 C 222.664 246.111,228.488 246.008,253.106 246.004 L 283.213 246.000 283.789 244.700 C 284.106 243.985,284.913 241.555,285.583 239.300 C 286.252 237.045,287.330 233.445,287.979 231.300 C 290.492 222.984,294.098 210.944,294.418 209.800 C 294.603 209.140,295.132 207.250,295.594 205.600 C 297.529 198.688,297.585 197.720,297.593 170.880 C 297.601 143.128,297.496 144.369,300.016 142.248 C 300.701 141.671,301.619 141.200,302.057 141.200 C 304.228 141.200,304.400 140.758,304.400 135.194 L 304.400 130.015 303.300 129.793 C 297.930 128.705,297.600 127.788,297.600 113.941 L 297.600 102.400 261.154 102.400 C 225.047 102.400,224.695 102.392,223.254 101.573 C 219.180 99.256,219.035 94.351,222.954 91.425 C 224.045 90.609,224.476 90.598,260.396 90.400 L 296.733 90.200 295.476 87.602 C 292.981 82.446,287.468 78.209,281.649 76.975 C 277.944 76.190,120.963 76.204,117.751 76.990 M102.432 128.700 C 102.450 129.118,102.544 129.199,102.665 128.900 C 103.041 127.968,135.476 128.201,137.667 129.152 C 142.867 131.407,143.510 138.000,138.815 140.920 C 137.427 141.783,137.058 141.804,119.800 142.008 L 102.200 142.216 119.481 142.308 C 137.882 142.406,137.949 142.400,140.133 140.425 C 143.803 137.105,142.814 131.011,138.257 128.869 C 135.647 127.642,102.377 127.485,102.432 128.700 M267.199 143.000 C 270.899 144.913,271.565 149.256,268.611 152.211 L 266.821 154.000 239.111 153.999 C 212.165 153.997,211.364 153.975,210.096 153.202 C 206.146 150.794,206.320 145.154,210.408 143.101 C 212.382 142.109,265.295 142.015,267.199 143.000 M203.046 221.025 C 206.712 223.762,206.588 228.833,202.806 230.855 C 200.951 231.847,160.978 232.019,158.647 231.045 C 154.239 229.204,154.363 222.577,158.843 220.615 C 161.284 219.545,201.566 219.919,203.046 221.025 M223.200 258.047 C 217.081 260.488,217.401 268.806,223.719 271.520 C 226.028 272.511,275.477 272.177,276.018 271.166 C 276.264 270.707,276.353 270.220,276.217 270.083 C 276.080 269.947,275.864 270.232,275.737 270.717 L 275.507 271.600 250.625 271.600 C 222.762 271.600,223.071 271.628,220.811 268.886 C 218.033 265.516,219.300 260.267,223.319 258.494 C 224.777 257.850,279.419 257.769,279.737 258.410 C 279.849 258.636,279.894 258.590,279.837 258.310 C 279.705 257.659,224.812 257.404,223.200 258.047 M278.646 261.284 C 278.285 262.448,277.792 264.120,277.549 265.000 C 277.307 265.880,276.932 266.981,276.715 267.447 C 276.498 267.914,276.386 268.631,276.465 269.041 C 276.544 269.451,277.293 267.476,278.130 264.652 C 278.966 261.828,279.572 259.439,279.477 259.343 C 279.381 259.247,279.007 260.121,278.646 261.284 M154.091 342.300 L 154.200 349.400 200.000 349.400 L 245.800 349.400 245.909 342.300 L 246.018 335.200 200.000 335.200 L 153.982 335.200 154.091 342.300 M245.400 342.400 L 245.400 349.000 200.000 349.000 L 154.600 349.000 154.489 342.817 C 154.428 339.416,154.468 336.400,154.577 336.115 C 154.739 335.694,163.272 335.616,200.088 335.698 L 245.400 335.800 245.400 342.400 M192.992 374.600 L 193.000 388.200 200.000 388.200 L 207.000 388.200 207.000 374.800 L 207.000 361.400 201.100 361.383 L 195.199 361.367 201.000 361.494 L 206.800 361.621 206.800 374.811 L 206.800 388.000 200.005 388.000 L 193.211 388.000 193.097 374.500 L 192.984 361.000 192.992 374.600 " stroke="none" fill="#936a5b" fill-rule="evenodd"></path><path id="path1" d="M188.100 0.271 C 187.605 0.373,187.200 0.623,187.200 0.828 C 187.200 1.033,186.925 1.200,186.589 1.200 C 185.796 1.200,182.400 4.596,182.400 5.389 C 182.400 5.725,182.220 6.000,182.000 6.000 C 181.780 6.000,181.600 6.360,181.600 6.800 C 181.600 7.240,181.438 7.600,181.240 7.600 C 180.556 7.600,180.309 11.455,180.144 24.700 L 179.979 38.000 165.813 38.000 C 156.801 38.000,151.557 38.146,151.400 38.400 C 151.264 38.620,150.623 38.800,149.976 38.800 C 149.329 38.800,148.800 38.980,148.800 39.200 C 148.800 39.420,148.563 39.600,148.274 39.600 C 147.389 39.600,143.352 43.700,142.563 45.400 C 141.934 46.756,141.798 48.267,141.670 55.300 L 141.519 63.600 130.783 63.600 C 124.057 63.600,119.955 63.749,119.800 64.000 C 119.664 64.220,118.393 64.400,116.976 64.400 C 115.525 64.400,114.400 64.575,114.400 64.800 C 114.400 65.020,113.781 65.200,113.024 65.200 C 112.267 65.200,111.536 65.380,111.400 65.600 C 111.264 65.820,110.803 66.000,110.376 66.000 C 109.949 66.000,109.600 66.180,109.600 66.400 C 109.600 66.620,109.347 66.800,109.038 66.800 C 108.281 66.800,105.200 68.465,105.200 68.874 C 105.200 69.053,104.912 69.200,104.560 69.200 C 104.209 69.200,103.417 69.740,102.800 70.400 C 102.183 71.060,101.467 71.600,101.208 71.600 C 100.345 71.600,95.456 77.192,94.412 79.372 C 94.089 80.047,93.684 80.660,93.512 80.733 C 93.341 80.807,93.200 81.101,93.200 81.388 C 93.200 81.674,92.931 82.424,92.602 83.054 C 92.274 83.684,92.004 84.504,92.002 84.876 C 92.001 85.248,91.820 85.664,91.600 85.800 C 91.380 85.936,91.200 86.667,91.200 87.424 C 91.200 88.181,91.020 88.800,90.800 88.800 C 90.565 88.800,90.400 90.192,90.400 92.176 C 90.400 94.033,90.220 95.664,90.000 95.800 C 89.446 96.142,89.446 193.200,90.000 193.200 C 90.243 193.200,90.400 195.000,90.400 197.800 C 90.400 200.330,90.563 202.400,90.763 202.400 C 90.963 202.400,91.213 203.345,91.318 204.500 C 91.424 205.655,91.813 207.770,92.184 209.200 C 92.554 210.630,92.954 212.297,93.074 212.905 C 93.194 213.513,93.451 214.108,93.646 214.229 C 93.841 214.349,94.000 214.966,94.000 215.600 C 94.000 216.234,94.180 216.864,94.400 217.000 C 94.620 217.136,94.800 217.766,94.800 218.400 C 94.800 219.034,94.980 219.664,95.200 219.800 C 95.420 219.936,95.600 220.399,95.600 220.829 C 95.600 221.259,95.758 221.923,95.951 222.305 C 96.540 223.472,97.200 225.808,97.200 226.728 C 97.200 227.208,97.380 227.600,97.600 227.600 C 97.820 227.600,98.000 228.140,98.000 228.800 C 98.000 229.460,98.180 230.000,98.400 230.000 C 98.620 230.000,98.800 230.529,98.800 231.176 C 98.800 231.823,98.980 232.464,99.200 232.600 C 99.420 232.736,99.600 233.366,99.600 234.000 C 99.600 234.634,99.780 235.264,100.000 235.400 C 100.220 235.536,100.400 236.177,100.400 236.824 C 100.400 237.471,100.580 238.000,100.800 238.000 C 101.020 238.000,101.200 238.529,101.200 239.176 C 101.200 239.823,101.380 240.464,101.600 240.600 C 101.820 240.736,102.000 241.291,102.000 241.834 C 102.000 244.660,107.967 247.732,110.117 246.014 C 112.928 243.768,113.632 242.965,114.003 241.591 C 114.530 239.631,114.535 239.653,109.682 223.598 C 105.619 210.160,104.475 206.293,103.826 203.800 C 102.996 200.609,102.316 195.920,102.464 194.400 L 102.600 193.000 126.418 192.800 C 148.504 192.615,150.316 192.548,151.337 191.878 C 154.932 189.522,154.808 184.256,151.104 181.998 C 149.842 181.228,149.043 181.203,126.100 181.201 L 102.400 181.200 102.400 167.600 L 102.400 154.000 120.300 153.996 C 134.962 153.992,138.554 153.884,140.155 153.398 C 158.956 147.695,158.479 121.943,139.480 117.003 C 137.586 116.510,133.978 116.400,119.780 116.400 L 102.400 116.400 102.400 104.838 C 102.400 93.681,102.434 93.177,103.362 90.432 C 105.701 83.520,110.992 78.630,117.926 76.972 C 121.368 76.149,277.766 76.152,281.649 76.975 C 287.468 78.209,292.981 82.446,295.476 87.602 L 296.733 90.200 260.396 90.400 C 224.476 90.598,224.045 90.609,222.954 91.425 C 219.035 94.351,219.180 99.256,223.254 101.573 C 224.695 102.392,225.047 102.400,261.154 102.400 L 297.600 102.400 297.600 113.941 C 297.600 125.252,297.618 125.508,298.501 126.819 C 301.576 131.382,309.600 130.679,309.600 125.846 C 309.600 125.051,309.780 124.400,310.000 124.400 C 310.259 124.400,310.400 119.408,310.400 110.224 C 310.400 101.204,310.254 95.957,310.000 95.800 C 309.780 95.664,309.600 94.033,309.600 92.176 C 309.600 90.192,309.435 88.800,309.200 88.800 C 308.980 88.800,308.800 88.429,308.800 87.975 C 308.800 86.971,307.616 83.146,307.142 82.620 C 306.954 82.411,306.800 81.931,306.800 81.553 C 306.800 81.176,306.659 80.807,306.488 80.733 C 306.316 80.660,305.911 80.047,305.588 79.372 C 304.531 77.164,300.996 73.118,298.800 71.604 C 298.030 71.072,297.109 70.314,296.753 69.919 C 296.397 69.524,295.895 69.200,295.636 69.200 C 295.378 69.200,294.780 68.840,294.308 68.400 C 293.836 67.960,293.213 67.600,292.925 67.600 C 292.636 67.600,292.400 67.420,292.400 67.200 C 292.400 66.980,291.950 66.800,291.400 66.800 C 290.850 66.800,290.400 66.620,290.400 66.400 C 290.400 66.180,289.950 66.000,289.400 66.000 C 288.850 66.000,288.400 65.820,288.400 65.600 C 288.400 65.380,287.770 65.200,287.000 65.200 C 286.230 65.200,285.600 65.020,285.600 64.800 C 285.600 64.571,284.400 64.400,282.800 64.400 C 281.200 64.400,280.000 64.229,280.000 64.000 C 280.000 63.743,276.147 63.600,269.240 63.600 L 258.481 63.600 258.330 55.300 C 258.202 48.224,258.069 46.764,257.429 45.400 C 256.584 43.600,252.696 39.600,251.791 39.600 C 251.466 39.600,251.200 39.420,251.200 39.200 C 251.200 38.980,250.671 38.800,250.024 38.800 C 249.377 38.800,248.736 38.620,248.600 38.400 C 248.443 38.146,243.196 38.000,234.176 38.000 L 220.000 38.000 220.000 24.824 C 220.000 16.471,219.854 11.557,219.600 11.400 C 219.380 11.264,219.200 10.353,219.200 9.376 C 219.200 8.399,219.020 7.600,218.800 7.600 C 218.580 7.600,218.400 7.240,218.400 6.800 C 218.400 6.360,218.220 6.000,218.000 6.000 C 217.780 6.000,217.600 5.725,217.600 5.389 C 217.600 4.614,214.213 1.200,213.444 1.200 C 213.126 1.200,212.792 0.975,212.700 0.700 C 212.535 0.204,190.320 -0.183,188.100 0.271 M207.000 25.200 L 207.000 38.600 199.900 38.709 L 192.800 38.818 192.800 25.476 C 192.800 18.137,192.924 12.009,193.076 11.858 C 193.227 11.706,196.422 11.631,200.176 11.691 L 207.000 11.800 207.000 25.200 M245.909 57.700 L 246.018 64.800 200.009 64.800 L 154.000 64.800 154.000 57.867 C 154.000 54.053,154.121 50.813,154.268 50.665 C 154.416 50.517,175.071 50.442,200.168 50.498 L 245.800 50.600 245.909 57.700 M138.257 128.869 C 142.814 131.011,143.803 137.105,140.133 140.425 C 137.963 142.387,137.831 142.400,119.581 142.400 L 102.400 142.400 102.400 135.200 L 102.400 128.000 119.404 128.000 C 136.023 128.000,136.451 128.020,138.257 128.869 M303.600 140.800 C 303.270 141.013,302.609 141.191,302.131 141.194 C 301.653 141.197,300.701 141.671,300.016 142.248 C 297.496 144.369,297.601 143.128,297.593 170.880 C 297.585 197.720,297.529 198.688,295.594 205.600 C 295.132 207.250,294.603 209.140,294.418 209.800 C 294.090 210.973,290.357 223.435,287.947 231.400 C 287.282 233.600,286.204 237.200,285.551 239.400 C 284.899 241.600,284.106 243.985,283.789 244.700 L 283.213 246.000 253.106 246.004 C 228.488 246.008,222.664 246.111,221.159 246.567 C 202.230 252.313,202.626 278.032,221.720 282.997 C 223.662 283.502,227.940 283.600,248.020 283.600 C 267.891 283.600,272.000 283.693,272.000 284.140 C 272.000 284.437,271.832 285.202,271.627 285.840 C 271.421 286.478,270.690 288.890,270.001 291.200 C 269.312 293.510,268.601 295.850,268.421 296.400 C 268.240 296.950,267.868 298.210,267.593 299.200 C 267.318 300.190,266.779 301.990,266.395 303.200 C 266.012 304.410,265.303 306.750,264.822 308.400 C 264.340 310.050,263.794 311.850,263.610 312.400 C 263.425 312.950,262.852 314.835,262.337 316.588 C 261.235 320.338,259.510 322.460,257.000 323.154 C 254.699 323.789,144.666 323.782,142.760 323.146 C 139.805 322.160,138.658 320.403,136.791 314.000 C 136.310 312.350,135.768 310.550,135.586 310.000 C 135.404 309.450,134.864 307.650,134.386 306.000 C 133.908 304.350,133.368 302.550,133.186 302.000 C 133.004 301.450,132.464 299.650,131.986 298.000 C 131.508 296.350,130.968 294.550,130.786 294.000 C 130.604 293.450,130.066 291.650,129.590 290.000 C 129.115 288.350,128.563 286.587,128.363 286.081 C 127.301 283.394,125.365 283.600,151.700 283.599 C 174.979 283.597,175.424 283.582,176.761 282.767 C 180.568 280.447,181.009 275.950,177.699 273.221 L 176.218 272.000 150.300 272.000 L 124.383 272.000 124.012 271.100 C 123.515 269.892,121.200 262.253,121.200 261.819 C 121.200 261.022,118.993 258.673,117.760 258.158 C 116.229 257.518,111.600 257.399,111.600 258.000 C 111.600 258.220,111.363 258.400,111.074 258.400 C 108.798 258.400,108.142 265.119,110.049 268.895 C 110.242 269.277,110.400 270.031,110.400 270.571 C 110.400 271.111,110.580 271.664,110.800 271.800 C 111.020 271.936,111.200 272.577,111.200 273.224 C 111.200 273.871,111.380 274.400,111.600 274.400 C 111.820 274.400,112.000 274.940,112.000 275.600 C 112.000 276.260,112.180 276.800,112.400 276.800 C 112.620 276.800,112.800 277.329,112.800 277.976 C 112.800 278.623,112.980 279.264,113.200 279.400 C 113.420 279.536,113.600 280.267,113.600 281.024 C 113.600 281.781,113.780 282.400,114.000 282.400 C 114.220 282.400,114.400 282.940,114.400 283.600 C 114.400 284.260,114.580 284.800,114.800 284.800 C 115.020 284.800,115.200 285.329,115.200 285.976 C 115.200 286.623,115.380 287.264,115.600 287.400 C 115.820 287.536,116.000 288.177,116.000 288.824 C 116.000 289.471,116.180 290.000,116.400 290.000 C 116.620 290.000,116.800 290.540,116.800 291.200 C 116.800 291.860,116.980 292.400,117.200 292.400 C 117.420 292.400,117.600 293.019,117.600 293.776 C 117.600 294.533,117.780 295.264,118.000 295.400 C 118.220 295.536,118.400 296.177,118.400 296.824 C 118.400 297.471,118.580 298.000,118.800 298.000 C 119.020 298.000,119.200 298.540,119.200 299.200 C 119.200 299.860,119.380 300.400,119.600 300.400 C 119.820 300.400,120.000 300.929,120.000 301.576 C 120.000 302.223,120.180 302.864,120.400 303.000 C 120.620 303.136,120.800 303.766,120.800 304.400 C 120.800 305.034,120.980 305.664,121.200 305.800 C 121.420 305.936,121.600 306.487,121.600 307.024 C 121.600 307.561,121.780 308.000,122.000 308.000 C 122.220 308.000,122.400 308.619,122.400 309.376 C 122.400 310.133,122.580 310.864,122.800 311.000 C 123.020 311.136,123.200 311.777,123.200 312.424 C 123.200 313.071,123.380 313.600,123.600 313.600 C 123.820 313.600,124.000 314.140,124.000 314.800 C 124.000 315.460,124.180 316.000,124.400 316.000 C 124.620 316.000,124.800 316.483,124.800 317.074 C 124.800 318.362,125.979 322.844,126.459 323.380 C 126.647 323.589,126.800 324.084,126.800 324.480 C 126.800 324.876,126.980 325.200,127.200 325.200 C 127.420 325.200,127.600 325.560,127.600 326.000 C 127.600 326.440,127.750 326.800,127.932 326.800 C 128.115 326.800,128.520 327.293,128.832 327.895 C 129.517 329.216,132.608 332.400,133.206 332.400 C 133.441 332.400,134.020 332.760,134.492 333.200 C 134.964 333.640,135.587 334.000,135.875 334.000 C 136.164 334.000,136.400 334.180,136.400 334.400 C 136.400 334.620,136.940 334.800,137.600 334.800 C 138.260 334.800,138.800 334.980,138.800 335.200 C 138.800 335.420,139.412 335.600,140.161 335.600 L 141.522 335.600 141.669 344.300 C 141.795 351.739,141.925 353.232,142.561 354.600 C 143.353 356.301,147.390 360.400,148.274 360.400 C 148.563 360.400,148.800 360.580,148.800 360.800 C 148.800 361.020,149.419 361.200,150.176 361.200 C 150.933 361.200,151.664 361.380,151.800 361.600 C 151.957 361.854,157.134 362.000,166.013 362.000 L 179.979 362.000 180.144 375.300 C 180.309 388.545,180.556 392.400,181.240 392.400 C 181.438 392.400,181.600 392.760,181.600 393.200 C 181.600 393.640,181.780 394.000,182.000 394.000 C 182.220 394.000,182.400 394.275,182.400 394.611 C 182.400 395.386,185.787 398.800,186.556 398.800 C 186.874 398.800,187.208 399.025,187.300 399.300 C 187.429 399.686,190.329 399.800,200.000 399.800 C 209.671 399.800,212.571 399.686,212.700 399.300 C 212.792 399.025,213.126 398.800,213.444 398.800 C 214.213 398.800,217.600 395.386,217.600 394.611 C 217.600 394.275,217.780 394.000,218.000 394.000 C 218.220 394.000,218.400 393.640,218.400 393.200 C 218.400 392.760,218.580 392.400,218.800 392.400 C 219.020 392.400,219.200 391.601,219.200 390.624 C 219.200 389.647,219.380 388.736,219.600 388.600 C 219.854 388.443,220.000 383.529,220.000 375.176 L 220.000 362.000 233.976 362.000 C 242.863 362.000,248.043 361.854,248.200 361.600 C 248.336 361.380,249.067 361.200,249.824 361.200 C 250.581 361.200,251.200 361.020,251.200 360.800 C 251.200 360.580,251.466 360.400,251.791 360.400 C 252.695 360.400,256.583 356.401,257.430 354.600 C 258.078 353.224,258.204 351.783,258.331 344.300 L 258.478 335.600 259.839 335.600 C 260.588 335.600,261.200 335.420,261.200 335.200 C 261.200 334.980,261.740 334.800,262.400 334.800 C 263.060 334.800,263.600 334.620,263.600 334.400 C 263.600 334.180,263.920 334.000,264.312 334.000 C 264.703 334.000,265.283 333.640,265.600 333.200 C 265.917 332.760,266.419 332.400,266.714 332.400 C 267.406 332.400,271.066 328.652,271.400 327.602 C 271.539 327.161,271.822 326.800,272.027 326.800 C 272.232 326.800,272.400 326.440,272.400 326.000 C 272.400 325.560,272.580 325.200,272.800 325.200 C 273.020 325.200,273.200 324.876,273.200 324.480 C 273.200 324.084,273.353 323.589,273.541 323.380 C 274.021 322.844,275.200 318.362,275.200 317.074 C 275.200 316.483,275.380 316.000,275.600 316.000 C 275.820 316.000,276.000 315.460,276.000 314.800 C 276.000 314.140,276.180 313.600,276.400 313.600 C 276.620 313.600,276.800 313.071,276.800 312.424 C 276.800 311.777,276.980 311.136,277.200 311.000 C 277.420 310.864,277.600 310.133,277.600 309.376 C 277.600 308.619,277.780 308.000,278.000 308.000 C 278.220 308.000,278.400 307.561,278.400 307.024 C 278.400 306.487,278.580 305.936,278.800 305.800 C 279.020 305.664,279.200 305.034,279.200 304.400 C 279.200 303.766,279.380 303.136,279.600 303.000 C 279.820 302.864,280.000 302.223,280.000 301.576 C 280.000 300.929,280.180 300.400,280.400 300.400 C 280.620 300.400,280.800 299.860,280.800 299.200 C 280.800 298.540,280.980 298.000,281.200 298.000 C 281.420 298.000,281.600 297.471,281.600 296.824 C 281.600 296.177,281.780 295.536,282.000 295.400 C 282.220 295.264,282.400 294.533,282.400 293.776 C 282.400 293.019,282.580 292.400,282.800 292.400 C 283.020 292.400,283.200 291.860,283.200 291.200 C 283.200 290.540,283.380 290.000,283.600 290.000 C 283.820 290.000,284.000 289.471,284.000 288.824 C 284.000 288.177,284.180 287.536,284.400 287.400 C 284.620 287.264,284.800 286.623,284.800 285.976 C 284.800 285.329,284.980 284.800,285.200 284.800 C 285.420 284.800,285.600 284.260,285.600 283.600 C 285.600 282.940,285.780 282.400,286.000 282.400 C 286.220 282.400,286.400 281.781,286.400 281.024 C 286.400 280.267,286.580 279.536,286.800 279.400 C 287.020 279.264,287.200 278.623,287.200 277.976 C 287.200 277.329,287.380 276.800,287.600 276.800 C 287.820 276.800,288.000 276.260,288.000 275.600 C 288.000 274.940,288.180 274.400,288.400 274.400 C 288.620 274.400,288.800 273.871,288.800 273.224 C 288.800 272.577,288.980 271.936,289.200 271.800 C 289.420 271.664,289.600 271.111,289.600 270.571 C 289.600 270.031,289.758 269.277,289.951 268.895 C 290.603 267.604,291.230 265.269,291.471 263.229 C 291.603 262.113,291.866 261.200,292.056 261.200 C 292.245 261.200,292.400 260.660,292.400 260.000 C 292.400 259.340,292.580 258.800,292.800 258.800 C 293.020 258.800,293.200 258.271,293.200 257.624 C 293.200 256.977,293.380 256.336,293.600 256.200 C 293.820 256.064,294.000 255.423,294.000 254.776 C 294.000 254.129,294.180 253.600,294.400 253.600 C 294.620 253.600,294.800 253.060,294.800 252.400 C 294.800 251.740,294.980 251.200,295.200 251.200 C 295.420 251.200,295.600 250.671,295.600 250.024 C 295.600 249.377,295.780 248.736,296.000 248.600 C 296.220 248.464,296.400 247.733,296.400 246.976 C 296.400 246.219,296.580 245.600,296.800 245.600 C 297.020 245.600,297.200 245.060,297.200 244.400 C 297.200 243.740,297.380 243.200,297.600 243.200 C 297.820 243.200,298.000 242.671,298.000 242.024 C 298.000 241.377,298.180 240.736,298.400 240.600 C 298.620 240.464,298.800 239.823,298.800 239.176 C 298.800 238.529,298.980 238.000,299.200 238.000 C 299.420 238.000,299.600 237.460,299.600 236.800 C 299.600 236.140,299.780 235.600,300.000 235.600 C 300.220 235.600,300.400 234.981,300.400 234.224 C 300.400 233.467,300.580 232.736,300.800 232.600 C 301.020 232.464,301.200 231.823,301.200 231.176 C 301.200 230.529,301.380 230.000,301.600 230.000 C 301.820 230.000,302.000 229.460,302.000 228.800 C 302.000 228.140,302.180 227.600,302.400 227.600 C 302.620 227.600,302.800 227.208,302.800 226.728 C 302.800 225.808,303.460 223.472,304.049 222.305 C 304.242 221.923,304.400 221.259,304.400 220.829 C 304.400 220.399,304.580 219.936,304.800 219.800 C 305.020 219.664,305.200 219.034,305.200 218.400 C 305.200 217.766,305.380 217.136,305.600 217.000 C 305.820 216.864,306.000 216.223,306.000 215.576 C 306.000 214.929,306.160 214.400,306.356 214.400 C 306.552 214.400,306.808 213.815,306.924 213.100 C 307.040 212.385,307.440 210.630,307.812 209.200 C 308.185 207.770,308.576 205.655,308.682 204.500 C 308.787 203.345,309.037 202.400,309.237 202.400 C 309.437 202.400,309.600 200.330,309.600 197.800 C 309.600 195.000,309.757 193.200,310.000 193.200 C 310.262 193.200,310.400 185.141,310.400 169.824 C 310.400 154.671,310.259 146.360,310.000 146.200 C 309.780 146.064,309.600 145.410,309.600 144.746 C 309.600 142.283,305.489 139.579,303.600 140.800 M210.408 143.101 C 206.320 145.154,206.146 150.794,210.096 153.202 C 211.364 153.975,212.165 153.997,239.111 153.999 L 266.821 154.000 268.611 152.211 C 271.565 149.256,270.899 144.913,267.199 143.000 C 265.295 142.015,212.382 142.109,210.408 143.101 M158.843 220.615 C 154.363 222.577,154.239 229.204,158.647 231.045 C 160.978 232.019,200.951 231.847,202.806 230.855 C 206.588 228.833,206.712 223.762,203.046 221.025 C 201.566 219.919,161.284 219.545,158.843 220.615 M279.776 257.962 C 280.004 258.330,276.682 269.926,275.965 271.266 C 275.472 272.187,225.835 272.428,223.719 271.520 C 217.402 268.807,217.081 260.481,223.200 258.048 C 224.488 257.536,279.461 257.452,279.776 257.962 M245.909 342.300 L 245.800 349.400 200.000 349.400 L 154.200 349.400 154.091 342.300 L 153.982 335.200 200.000 335.200 L 246.018 335.200 245.909 342.300 M207.000 374.800 L 207.000 388.200 200.000 388.200 L 193.000 388.200 192.895 374.691 L 192.789 361.181 199.895 361.291 L 207.000 361.400 207.000 374.800 " stroke="none" fill="#040404" fill-rule="evenodd"></path><path id="path2" d="M154.577 51.317 C 154.468 51.601,154.428 54.616,154.489 58.017 L 154.600 64.200 188.600 64.324 C 207.300 64.393,227.685 64.327,233.900 64.179 L 245.200 63.909 245.200 57.618 L 245.200 51.327 236.500 51.065 C 219.377 50.548,154.795 50.746,154.577 51.317 M154.577 336.117 C 154.468 336.401,154.428 339.416,154.489 342.817 L 154.600 349.000 188.200 349.124 C 206.680 349.193,227.065 349.127,233.500 348.979 L 245.200 348.708 245.200 342.418 L 245.200 336.127 236.736 335.864 C 220.083 335.345,154.796 335.546,154.577 336.117 " stroke="none" fill="#fcc06a" fill-rule="evenodd"></path><path id="path3" d="M193.200 25.452 L 193.200 38.905 194.700 38.657 C 195.525 38.520,198.585 38.407,201.500 38.404 L 206.800 38.400 206.800 25.200 L 206.800 12.000 200.000 12.000 L 193.200 12.000 193.200 25.452 M193.200 374.548 L 193.200 388.000 200.000 388.000 L 206.800 388.000 206.800 374.800 L 206.800 361.600 201.500 361.596 C 198.585 361.593,195.525 361.480,194.700 361.343 L 193.200 361.095 193.200 374.548 " stroke="none" fill="#84b7ec" fill-rule="evenodd"></path><path id="path4" d="M239.300 51.094 L 245.200 51.221 245.200 57.600 L 245.200 63.978 239.700 64.105 L 234.200 64.233 239.800 64.216 L 245.400 64.200 245.400 57.600 L 245.400 51.000 239.400 50.983 L 233.400 50.966 239.300 51.094 M102.643 129.033 C 102.509 129.381,102.400 132.441,102.400 135.833 L 102.400 142.000 119.665 142.000 L 136.930 142.000 138.569 141.039 C 143.506 138.146,142.998 131.464,137.667 129.152 C 135.215 128.088,103.047 127.979,102.643 129.033 M223.200 258.518 C 219.280 260.337,218.074 265.567,220.811 268.886 C 223.070 271.628,222.767 271.600,250.571 271.597 L 275.400 271.594 275.900 270.517 C 276.175 269.925,276.400 269.114,276.400 268.715 C 276.400 268.316,276.562 267.677,276.761 267.295 C 276.960 266.913,277.344 265.790,277.615 264.800 C 277.886 263.810,278.443 261.998,278.854 260.773 C 279.264 259.549,279.600 258.424,279.600 258.273 C 279.600 257.767,224.303 258.007,223.200 258.518 M239.500 335.893 L 245.200 336.022 245.200 342.400 L 245.200 348.779 239.400 348.906 L 233.599 349.033 239.500 349.017 L 245.400 349.000 245.400 342.400 L 245.400 335.800 239.600 335.782 L 233.800 335.765 239.500 335.893 " stroke="none" fill="#e05f5f" fill-rule="evenodd"></path></g></svg>