<svg width="193" height="193" fill="none" xmlns="http://www.w3.org/2000/svg"><script xmlns=""/><circle cx="96.5" cy="96.5" r="96.5" fill="url(#wbtc_icon_97426c8e-ae28-47ef-944b-9d9f8f2278f9)" fill-opacity=".9"/><path fill-rule="evenodd" clip-rule="evenodd" d="M110.017 81.798c0 10.14-15.814 8.906-20.839 8.906V72.84c5.025 0 20.839-1.588 20.839 8.957zm4.131 27.731c0 11.085-18.95 9.818-24.987 9.818v-19.67c6.036.017 24.987-1.724 24.987 9.852zm12.476-31.736c-1.011-10.579-10.116-14.128-21.631-15.21V48h-8.902v14.297c-2.344 0-4.738 0-7.115.084V48h-8.852v14.668h-18.04v9.548s6.576-.118 6.474 0a4.604 4.604 0 015.058 3.92v40.169a3.155 3.155 0 01-3.341 2.959l-.03-.001c.117.101-6.475 0-6.475 0L62 129.926h17.973v14.905h8.902v-14.686h7.115v14.618h8.919v-14.736c15.039-.912 25.526-4.63 26.841-18.741 1.062-11.356-4.266-16.425-12.78-18.47 5.176-2.636 8.43-7.284 7.654-15.023z" fill="#fff"/><defs><linearGradient id="wbtc_icon_97426c8e-ae28-47ef-944b-9d9f8f2278f9" x1="193" y1="2.463" x2="193" y2="193" gradientUnits="userSpaceOnUse"><stop stop-color="#FB9D3E"/><stop offset="1" stop-color="#E7892A"/></linearGradient></defs></svg>