<?xml version="1.0" standalone="no"?>
<!DOCTYPE svg PUBLIC "-//W3C//DTD SVG 20010904//EN"
 "http://www.w3.org/TR/2001/REC-SVG-20010904/DTD/svg10.dtd">
<svg version="1.0" xmlns="http://www.w3.org/2000/svg"
 width="25" height="25" viewBox="0 0 1393.000000 1386.000000"
 preserveAspectRatio="xMidYMid meet">

<g transform="translate(0.000000,1386.000000) scale(0.100000,-0.100000)"
fill="#3F75FF" stroke="none">
<path d="M7540 13850 c-148 -20 -253 -73 -366 -185 -68 -68 -89 -97 -127 -176
-81 -168 -77 -106 -77 -1276 0 -1108 0 -1093 50 -1225 30 -81 109 -197 181
-268 127 -126 277 -205 475 -252 658 -155 1103 -367 1576 -750 136 -110 394
-367 500 -498 451 -560 712 -1180 800 -1895 20 -169 17 -655 -5 -825 -93 -696
-343 -1291 -768 -1825 -130 -164 -386 -420 -550 -552 -423 -337 -915 -579
-1424 -698 -88 -20 -204 -52 -258 -70 -251 -85 -455 -282 -541 -523 l-31 -87
-3 -1065 c-3 -1204 -6 -1146 75 -1310 38 -77 61 -109 127 -175 162 -160 316
-208 577 -179 1464 162 2848 796 3933 1800 1790 1656 2581 4091 2106 6484
-289 1456 -1059 2807 -2165 3798 -1085 972 -2426 1581 -3838 1742 -95 11 -176
19 -182 19 -5 -1 -35 -5 -65 -9z"/>
<path d="M4030 13225 c-108 -24 -425 -189 -730 -378 -1644 -1022 -2793 -2681
-3164 -4565 -300 -1520 -84 -3102 609 -4477 543 -1075 1352 -1991 2350 -2658
380 -254 799 -482 943 -512 274 -59 551 84 686 352 20 39 44 97 53 129 17 56
18 343 21 5769 2 4237 0 5729 -8 5784 -24 152 -88 278 -194 383 -76 75 -149
120 -247 155 -91 31 -225 39 -319 18z"/>
</g>
</svg>
